<?xml version="1.0" standalone="no"?>
<!DOCTYPE svg PUBLIC "-//W3C//DTD SVG 20010904//EN"
 "http://www.w3.org/TR/2001/REC-SVG-20010904/DTD/svg10.dtd">
<svg version="1.0" xmlns="http://www.w3.org/2000/svg"
 width="300.000000pt" height="169.000000pt" viewBox="0 0 300.000000 169.000000"
 preserveAspectRatio="xMidYMid meet">
<metadata>
Created by potrace 1.10, written by Peter Selinger 2001-2011
</metadata>
<g transform="translate(0.000000,169.000000) scale(0.100000,-0.100000)"
fill="#000000" stroke="none">
<path d="M2228 1603 c12 -2 30 -2 40 0 9 3 -1 5 -23 4 -22 0 -30 -2 -17 -4z"/>
<path d="M2505 1600 c4 -6 11 -8 16 -5 14 9 11 15 -7 15 -8 0 -12 -5 -9 -10z"/>
<path d="M2685 1570 c3 -5 8 -10 11 -10 2 0 4 5 4 10 0 6 -5 10 -11 10 -5 0
-7 -4 -4 -10z"/>
<path d="M1273 1555 c-18 -20 -16 -25 11 -25 19 0 23 4 19 20 -6 23 -13 25
-30 5z"/>
<path d="M1577 1543 c-9 -12 -17 -27 -17 -32 0 -6 -4 -11 -10 -11 -5 0 -10 -9
-10 -20 0 -11 -4 -20 -9 -20 -5 0 -11 -9 -14 -20 -3 -11 0 -18 7 -17 6 1 12
-11 14 -28 4 -40 66 -85 116 -85 20 0 36 5 36 10 0 6 -6 10 -12 9 -40 -5 -68
4 -96 32 -76 74 -14 199 97 199 30 0 101 -54 101 -76 0 -8 5 -14 10 -14 16 0
-4 32 -41 70 -30 29 -36 31 -94 28 -50 -2 -65 -7 -78 -25z"/>
<path d="M1960 1562 c0 -7 25 -11 62 -11 53 1 64 -3 79 -23 15 -19 17 -20 15
-4 -1 10 -11 23 -21 29 -27 14 -135 22 -135 9z"/>
<path d="M2385 1560 c-4 -6 14 -10 47 -10 38 0 49 3 38 10 -20 13 -77 13 -85
0z"/>
<path d="M2583 1563 c9 -2 25 -2 35 0 9 3 1 5 -18 5 -19 0 -27 -2 -17 -5z"/>
<path d="M1928 1553 c7 -3 16 -2 19 1 4 3 -2 6 -13 5 -11 0 -14 -3 -6 -6z"/>
<path d="M2126 1548 c3 -5 10 -6 15 -3 13 9 11 12 -6 12 -8 0 -12 -4 -9 -9z"/>
<path d="M1849 1513 c-7 -18 -6 -30 1 -37 7 -7 10 -6 11 5 1 7 3 24 4 37 3 30
-3 28 -16 -5z"/>
<path d="M2507 1513 c3 -7 9 -10 14 -7 5 3 9 1 9 -5 0 -6 7 -8 15 -5 24 10 17
21 -14 26 -21 3 -28 1 -24 -9z"/>
<path d="M1909 1504 c-17 -21 -4 -29 21 -11 17 12 18 16 6 20 -8 3 -20 -1 -27
-9z"/>
<path d="M2012 1506 c7 -8 15 -12 17 -10 2 2 12 -1 22 -7 20 -10 25 -59 13
-106 -7 -26 -39 -39 -59 -23 -9 7 -15 8 -20 0 -9 -14 16 -22 57 -18 l33 3 3
74 c2 40 0 77 -5 82 -4 4 -23 11 -41 14 -28 5 -31 3 -20 -9z"/>
<path d="M2178 1513 c7 -3 16 -2 19 1 4 3 -2 6 -13 5 -11 0 -14 -3 -6 -6z"/>
<path d="M2240 1509 c0 -5 5 -7 10 -4 6 3 10 8 10 11 0 2 -4 4 -10 4 -5 0 -10
-5 -10 -11z"/>
<path d="M2298 1511 c14 -8 161 -5 170 4 3 3 -37 5 -89 5 -55 0 -88 -4 -81 -9z"/>
<path d="M1170 1485 c-8 -9 -8 -15 -2 -15 6 0 13 6 15 13 4 9 6 9 6 0 1 -14
31 -6 31 8 0 15 -37 10 -50 -6z"/>
<path d="M2120 1484 c0 -8 5 -12 10 -9 6 4 8 11 5 16 -9 14 -15 11 -15 -7z"/>
<path d="M731 1440 c-16 -23 -31 -46 -33 -51 -2 -5 -13 -11 -25 -12 -12 0 -19
-5 -17 -9 3 -4 -3 -8 -12 -8 -10 0 -15 -3 -11 -6 3 -3 2 -17 -3 -30 -5 -13 -6
-24 -2 -24 4 0 13 14 19 31 10 27 16 30 37 25 21 -5 25 -2 31 24 4 17 10 30
14 30 10 0 44 60 38 67 -3 3 -19 -14 -36 -37z"/>
<path d="M2170 1460 c0 -14 9 -33 20 -43 11 -9 20 -27 21 -39 0 -22 1 -22 9
-3 5 13 3 25 -6 35 -7 8 -20 29 -28 45 -16 30 -16 30 -16 5z"/>
<path d="M2254 1465 c-19 -14 -19 -15 5 -33 20 -16 22 -22 12 -40 -15 -28 -14
-39 5 -39 10 0 14 7 10 20 -3 13 1 21 15 24 22 6 26 23 5 23 -21 0 -30 20 -17
33 27 27 -2 37 -35 12z"/>
<path d="M2469 1478 c-6 -19 -6 -39 0 -42 4 -3 8 6 9 20 1 13 0 24 -3 24 -3 0
-5 -1 -6 -2z"/>
<path d="M2593 1473 c-53 -5 -57 -19 -5 -17 58 3 62 3 62 14 0 6 -3 9 -7 8 -5
-1 -27 -3 -50 -5z"/>
<path d="M1906 1443 c-2 -16 -4 -44 -3 -63 2 -33 4 -35 37 -37 24 -1 27 1 10
4 -34 7 -40 19 -34 75 6 52 -1 66 -10 21z"/>
<path d="M1780 1439 c0 -26 -40 -100 -50 -94 -4 3 -13 -2 -20 -10 -11 -13 -10
-14 6 -9 23 9 70 44 59 44 -5 0 -1 8 7 18 21 24 29 72 12 72 -8 0 -14 -10 -14
-21z"/>
<path d="M1978 1453 c7 -3 16 -2 19 1 4 3 -2 6 -13 5 -11 0 -14 -3 -6 -6z"/>
<path d="M2119 1413 c-1 -29 -2 -58 -3 -65 -1 -6 5 -13 12 -15 14 -5 16 79 2
112 -6 15 -9 7 -11 -32z"/>
<path d="M1845 1440 c-9 -14 3 -63 13 -56 9 5 8 53 0 62 -3 3 -9 0 -13 -6z"/>
<path d="M821 1424 c0 -11 3 -14 6 -6 3 7 2 16 -1 19 -3 4 -6 -2 -5 -13z"/>
<path d="M2370 1430 c0 -10 26 -20 34 -13 11 12 6 19 -14 20 -11 1 -20 -2 -20
-7z"/>
<path d="M1012 1411 c-9 -5 -4 -8 16 -7 17 1 28 4 25 9 -6 9 -25 9 -41 -2z"/>
<path d="M2506 1407 c3 -10 9 -15 12 -12 3 3 0 11 -7 18 -10 9 -11 8 -5 -6z"/>
<path d="M1427 1394 c23 -17 33 -17 33 0 0 8 -10 14 -25 14 -23 0 -24 -2 -8
-14z"/>
<path d="M2550 1380 c0 -5 5 -10 10 -10 6 0 10 5 10 10 0 6 -4 10 -10 10 -5 0
-10 -4 -10 -10z"/>
<path d="M2585 1380 c3 -5 8 -10 11 -10 2 0 4 5 4 10 0 6 -5 10 -11 10 -5 0
-7 -4 -4 -10z"/>
<path d="M2500 1359 c0 -11 5 -17 10 -14 6 3 10 13 10 21 0 8 -4 14 -10 14 -5
0 -10 -9 -10 -21z"/>
<path d="M1847 1350 c3 -11 9 -17 14 -15 10 7 1 35 -11 35 -5 0 -6 -9 -3 -20z"/>
<path d="M2338 1363 c7 -3 16 -2 19 1 4 3 -2 6 -13 5 -11 0 -14 -3 -6 -6z"/>
<path d="M2417 1350 c3 -10 14 -17 28 -17 30 0 22 23 -9 29 -18 4 -22 1 -19
-12z"/>
<path d="M2191 1344 c0 -11 3 -14 6 -6 3 7 2 16 -1 19 -3 4 -6 -2 -5 -13z"/>
<path d="M2220 1340 c-12 -7 -10 -9 8 -7 12 0 22 5 22 9 0 11 -12 10 -30 -2z"/>
<path d="M920 1320 c0 -11 2 -20 4 -20 2 0 6 9 9 20 3 11 1 20 -4 20 -5 0 -9
-9 -9 -20z"/>
<path d="M1870 1310 c0 -6 7 -10 15 -10 8 0 15 2 15 4 0 2 -7 6 -15 10 -8 3
-15 1 -15 -4z"/>
<path d="M2032 1303 c-26 -5 -20 -23 9 -23 10 0 19 7 19 15 0 8 -1 14 -2 14
-2 -1 -13 -4 -26 -6z"/>
<path d="M1520 1290 c0 -5 7 -7 15 -4 8 4 15 8 15 10 0 2 -7 4 -15 4 -8 0 -15
-4 -15 -10z"/>
<path d="M1934 1291 c10 -15 -19 -31 -55 -29 -19 1 -47 -7 -61 -16 -25 -16
-28 -16 -51 -1 -31 20 -112 17 -112 -4 0 -8 14 -19 32 -25 17 -6 35 -15 40
-20 4 -5 3 -6 -3 -3 -16 9 -26 -21 -14 -42 5 -10 6 -22 2 -26 -4 -3 0 -5 8 -3
10 2 16 -6 18 -24 2 -16 7 -28 12 -28 5 0 16 -3 24 -6 12 -5 15 -2 10 9 -10
27 6 40 26 22 10 -9 34 -18 53 -22 31 -5 40 -1 66 25 17 16 33 27 37 23 3 -3
4 4 0 15 -5 16 -2 23 14 27 14 4 23 0 27 -11 4 -9 15 -23 25 -30 10 -7 18 -22
18 -34 0 -17 4 -19 28 -13 15 4 34 7 42 7 8 0 26 1 38 4 20 4 22 7 11 20 -25
30 -1 23 34 -10 31 -29 34 -35 19 -39 -9 -3 -1 -5 18 -6 23 0 30 2 21 8 -11 7
-10 11 5 20 17 9 15 10 -12 11 -52 0 -85 59 -65 112 13 35 45 51 82 43 42 -9
36 -25 -7 -18 -44 7 -64 -13 -64 -64 0 -44 38 -71 77 -54 22 10 25 10 19 -5
-4 -9 -2 -14 6 -12 6 2 12 12 14 22 2 15 -3 16 -43 10 -40 -6 -45 -5 -40 10 4
9 2 15 -6 13 -16 -3 -21 41 -7 59 14 16 56 19 65 4 11 -19 23 -10 27 20 3 19
1 29 -6 27 -6 -2 -21 0 -34 4 -30 12 -77 -12 -96 -49 l-15 -27 4 33 c2 17 0
32 -3 33 -4 0 -23 1 -42 2 l-35 2 3 -82 c2 -49 -1 -83 -6 -83 -5 0 -29 29 -52
65 -44 68 -56 79 -47 45 3 -11 1 -23 -4 -26 -5 -3 -9 13 -9 36 0 52 8 47 65
-38 l45 -67 0 62 c0 59 -11 88 -24 61 -4 -7 -4 -3 -2 10 2 12 1 22 -4 22 -13
0 -30 -26 -22 -36 4 -5 -8 6 -27 23 -18 17 -30 36 -26 42 4 7 -4 11 -20 11
-14 0 -24 -4 -21 -9z m28 -56 c-2 -19 -8 -35 -13 -35 -5 0 -9 -16 -9 -35 0
-44 -29 -75 -70 -75 -68 0 -98 96 -44 139 33 26 54 26 87 1 25 -20 25 -20 20
0 -7 27 3 51 20 45 8 -4 12 -18 9 -40z m-200 -8 c13 -20 9 -47 -7 -53 -13 -5
-13 -10 1 -36 8 -16 14 -34 12 -40 -3 -7 -13 7 -25 30 -16 34 -18 42 -6 46 8
4 13 16 11 28 -2 19 -10 24 -45 26 -24 2 -43 8 -43 14 0 15 91 2 102 -15z
m388 -57 c0 -44 -3 -80 -7 -80 -5 0 -7 35 -6 77 3 92 2 83 8 83 3 0 5 -36 5
-80z m-31 18 c0 -35 -2 -39 -9 -21 -8 19 -3 63 6 63 2 0 4 -19 3 -42z m-65 6
c3 -8 2 -12 -4 -9 -6 3 -10 10 -10 16 0 14 7 11 14 -7z m-264 -55 c0 -5 -4 -9
-10 -9 -5 0 -10 7 -10 16 0 8 5 12 10 9 6 -3 10 -10 10 -16z m330 -20 c0 -11
-4 -18 -10 -14 -5 3 -7 12 -3 20 7 21 13 19 13 -6z"/>
<path d="M1826 1208 c-9 -12 -16 -33 -16 -45 0 -28 33 -63 60 -63 27 0 60 35
60 63 0 36 -27 67 -60 67 -18 0 -34 -8 -44 -22z m81 -14 c2 -7 -4 -19 -13 -29
-13 -13 -14 -19 -5 -25 15 -9 2 -20 -20 -17 -27 5 -39 18 -39 47 0 19 6 30 18
33 27 8 55 3 59 -9z"/>
<path d="M2288 1283 c7 -3 16 -2 19 1 4 3 -2 6 -13 5 -11 0 -14 -3 -6 -6z"/>
<path d="M691 1234 c-28 -35 -27 -93 0 -128 18 -23 27 -27 68 -24 52 3 64 22
36 60 -15 21 -16 21 -13 3 2 -15 -3 -21 -23 -23 -35 -4 -57 36 -41 74 11 22
18 25 50 22 32 -3 37 0 40 20 3 20 0 22 -47 22 -42 0 -53 -4 -70 -26z m93 10
c29 -11 17 -21 -26 -20 -37 1 -43 -2 -52 -25 -21 -59 25 -115 74 -89 18 10 21
9 18 -2 -7 -20 -67 -22 -88 -3 -23 21 -31 62 -19 94 16 44 52 61 93 45z"/>
<path d="M832 1243 c-13 -29 -3 -163 13 -163 21 0 28 18 27 79 0 39 2 48 7 31
6 -19 13 -24 30 -22 20 2 22 -1 17 -23 -4 -14 -2 -25 4 -25 5 0 10 6 10 13 1
6 12 -1 25 -18 17 -21 35 -31 57 -32 18 -1 49 -5 69 -9 22 -3 46 -1 59 6 24
13 55 -3 43 -24 -3 -6 3 -2 14 9 12 12 17 24 12 31 -5 5 -5 23 -1 39 7 24 9
26 15 11 5 -12 15 -16 34 -14 23 2 29 -1 31 -21 2 -13 12 -26 23 -28 15 -4 17
-9 8 -25 -15 -28 -6 -32 16 -8 10 11 23 20 29 20 7 0 18 20 25 45 7 25 16 45
18 45 3 0 14 -10 25 -22 21 -25 19 -44 -6 -42 -19 2 -20 -5 -2 -29 12 -16 15
-16 29 -2 9 8 23 15 32 15 21 0 15 33 -19 115 -19 46 -30 61 -48 63 -20 2 -26
-6 -48 -60 l-25 -63 -5 54 c-6 67 -29 87 -60 54 -11 -12 -20 -27 -20 -33 0
-19 -24 -6 -35 18 -12 26 -43 38 -58 23 -6 -6 -10 -40 -9 -81 l3 -69 -28 14
c-28 15 -76 12 -99 -6 -6 -5 -10 4 -11 28 -1 23 2 31 7 23 5 -8 29 -14 54 -15
26 -1 44 0 42 3 -3 2 -1 13 4 22 8 14 5 19 -13 24 -36 9 -72 7 -85 -6 -9 -9
-12 -6 -12 16 0 23 3 26 14 17 13 -11 101 -9 113 2 3 3 3 13 0 22 -7 18 -102
22 -112 5 -5 -8 -11 -7 -21 1 -24 20 -44 3 -45 -38 0 -21 -3 -32 -6 -24 -19
47 -93 94 -93 59 0 -9 -3 -9 -12 0 -17 17 -26 15 -36 -5z m21 -77 c1 -42 -1
-76 -5 -76 -5 0 -8 37 -8 82 0 102 11 97 13 -6z m60 42 c-3 -16 -9 -28 -14
-28 -11 0 -12 53 -2 64 12 12 22 -9 16 -36z m106 -44 c-1 -48 -6 -73 -13 -71
-14 5 -90 117 -83 123 3 3 20 -18 38 -47 l34 -52 3 67 c4 93 24 74 21 -20z
m131 76 c0 -5 -22 -10 -50 -10 -27 0 -50 5 -50 10 0 6 23 10 50 10 28 0 50 -4
50 -10z m52 -77 c-2 -40 -8 -73 -13 -73 -10 0 -13 143 -2 154 14 14 19 -11 15
-81z m128 7 c0 -52 -4 -80 -11 -80 -8 0 -10 22 -7 66 4 66 4 66 -14 44 -10
-13 -23 -30 -28 -39 -9 -14 -13 -12 -35 12 -22 25 -32 47 -21 47 2 0 13 -14
23 -30 l20 -31 28 46 c16 25 33 45 37 45 4 0 8 -36 8 -80z m139 -8 c17 -41 26
-72 20 -70 -6 2 -23 34 -37 71 l-26 67 -18 -48 c-29 -76 -38 -95 -44 -90 -4 4
40 130 53 151 8 14 19 -2 52 -81z m-349 8 c0 -5 -16 -10 -35 -10 -19 0 -35 5
-35 10 0 6 16 10 35 10 19 0 35 -4 35 -10z m30 -70 c0 -5 -22 -10 -50 -10 -27
0 -50 5 -50 10 0 6 23 10 50 10 28 0 50 -4 50 -10z"/>
<path d="M1490 1245 c0 -8 11 -22 25 -31 21 -14 25 -24 25 -69 0 -33 -5 -55
-12 -59 -7 -3 3 -4 22 -3 l35 2 3 67 c2 50 6 66 16 62 16 -6 40 21 31 36 -3 5
-37 10 -76 10 -54 0 -69 -3 -69 -15z m135 -6 c4 -5 -8 -9 -24 -9 l-31 0 -2
-72 -2 -73 -3 73 -4 72 -30 0 c-17 0 -28 4 -24 9 7 12 113 12 120 0z"/>
<path d="M2790 1250 c0 -5 4 -10 9 -10 6 0 13 5 16 10 3 6 -1 10 -9 10 -9 0
-16 -4 -16 -10z"/>
<path d="M2358 1243 c7 -3 16 -2 19 1 4 3 -2 6 -13 5 -11 0 -14 -3 -6 -6z"/>
<path d="M2710 1211 c0 -6 5 -13 10 -16 6 -3 10 1 10 9 0 9 -4 16 -10 16 -5 0
-10 -4 -10 -9z"/>
<path d="M366 1175 c4 -8 11 -15 16 -15 6 0 5 6 -2 15 -7 8 -14 15 -16 15 -2
0 -1 -7 2 -15z"/>
<path d="M1250 1076 c4 -4 16 -4 26 2 16 9 14 10 -8 9 -15 -1 -23 -6 -18 -11z"/>
<path d="M490 1062 c-5 -2 -15 -12 -20 -23 -8 -15 -7 -17 5 -13 8 3 12 10 9
15 -3 6 5 8 18 5 56 -11 139 -16 134 -7 -10 16 -116 33 -146 23z"/>
<path d="M718 1053 c7 -3 16 -2 19 1 4 3 -2 6 -13 5 -11 0 -14 -3 -6 -6z"/>
<path d="M903 1053 c13 -3 17 -12 15 -31 -3 -28 -36 -41 -105 -43 -31 -1 -33
-3 -33 -40 0 -28 -4 -39 -15 -39 -9 0 -18 7 -21 15 -8 20 -21 19 -27 -2 -3
-10 -5 -1 -6 21 -1 36 1 38 24 34 20 -4 23 -3 14 8 -9 10 -3 17 23 30 19 9 35
22 35 30 0 8 -1 14 -2 14 -8 0 -66 -33 -70 -40 -3 -5 -20 -4 -38 1 -40 11 -37
12 -37 -6 0 -11 -7 -14 -25 -9 -29 7 -31 -2 -10 -42 l15 -29 1 25 c0 14 3 19
6 12 3 -7 2 -25 -2 -40 l-7 -27 -13 25 c-14 25 -14 25 -15 3 0 -13 -5 -23 -11
-23 -11 0 -9 16 6 53 4 10 3 17 -4 17 -6 0 -11 -8 -11 -17 -1 -44 -45 -68 -70
-38 -7 8 -19 15 -26 15 -24 0 -15 -30 9 -32 12 -1 40 -3 62 -5 22 -2 70 -5
107 -6 38 -1 68 -5 68 -9 0 -4 9 -6 19 -5 11 0 18 4 15 8 -5 10 37 19 50 11
16 -9 79 -2 95 11 10 9 16 7 26 -6 9 -12 15 -15 20 -7 5 8 14 7 30 -4 12 -8
32 -12 44 -9 12 3 21 1 21 -6 0 -6 5 -11 11 -11 5 0 8 4 4 9 -8 14 12 23 36
16 17 -6 19 -9 8 -16 -8 -5 -9 -9 -3 -9 6 0 14 3 18 8 16 15 71 7 89 -13 14
-17 16 -17 11 -2 -4 12 -1 17 12 19 33 2 39 3 49 10 10 6 105 12 115 7 3 -1
64 -3 135 -5 72 -1 139 -5 150 -7 11 -2 25 -1 30 3 17 13 55 19 55 9 0 -6 15
-7 35 -3 32 6 34 5 29 -20 -3 -20 -1 -24 11 -20 8 4 15 1 15 -5 0 -6 -11 -13
-25 -17 -14 -3 -22 -10 -19 -15 3 -6 -6 -7 -23 -4 -15 3 -22 2 -15 -1 6 -3 12
-12 12 -20 0 -9 -5 -12 -12 -8 -6 4 -8 3 -4 -4 3 -6 2 -13 -4 -17 -5 -3 -10
-11 -10 -18 0 -6 11 0 25 16 14 15 39 34 55 42 34 18 60 52 54 70 -5 11 21 20
71 27 26 3 141 -14 149 -22 5 -5 9 -42 8 -82 -1 -45 2 -67 8 -58 7 11 11 11
24 1 14 -12 16 -9 16 27 0 22 -6 47 -13 54 -7 7 -14 27 -15 44 -3 29 -1 32 35
37 27 5 40 3 46 -8 5 -10 14 -12 30 -6 20 7 109 6 150 -3 9 -2 17 -1 17 2 0 4
49 6 109 6 106 -2 110 -1 115 21 14 56 -27 96 -88 84 -22 -4 -108 -6 -191 -4
-136 4 -150 6 -150 22 0 13 -7 17 -25 15 -13 -1 -27 -7 -30 -13 -4 -5 -24 -13
-46 -16 -21 -3 -45 -15 -53 -25 -9 -14 -16 -17 -24 -9 -7 7 -5 17 8 31 18 19
18 20 -2 20 -11 0 -26 -7 -33 -15 -11 -14 -56 -15 -77 -2 -5 3 -26 2 -46 -2
-24 -6 -38 -5 -42 3 -3 8 -7 7 -11 -1 -7 -15 -34 -17 -34 -3 0 6 -4 10 -10 10
-5 0 -10 -7 -10 -15 0 -12 -6 -14 -27 -8 -16 4 -49 7 -75 6 -37 -1 -47 3 -51
18 -3 10 -13 19 -23 19 -14 0 -15 -3 -6 -12 9 -9 6 -14 -11 -23 -12 -6 -26 -9
-32 -5 -18 13 -53 18 -66 9 -7 -4 -18 -5 -24 -1 -5 3 -16 7 -22 8 -7 1 -20 9
-29 18 -15 16 -39 13 -29 -4 3 -5 1 -11 -5 -15 -5 -3 -10 2 -10 12 0 16 -3 15
-18 -4 -26 -35 -62 -21 -62 23 0 19 -4 34 -10 34 -5 0 -10 -13 -10 -29 0 -33
-25 -47 -60 -36 -11 4 -34 0 -50 -8 -16 -9 -32 -11 -35 -7 -3 5 -12 7 -20 3
-17 -6 -75 15 -75 27 0 5 6 11 13 13 7 3 7 6 1 6 -6 1 -19 -8 -29 -19 -18 -19
-17 -20 5 -20 13 0 21 -2 18 -5 -3 -3 -30 -3 -61 1 -54 6 -55 7 -47 34 10 34
5 40 -29 39 -18 -1 -20 -3 -8 -6z m-215 -90 c-10 -2 -18 -9 -18 -14 0 -5 8
-10 18 -10 16 -1 16 -2 0 -6 -10 -2 -18 -8 -18 -13 0 -5 8 -11 18 -13 13 -4
11 -5 -5 -6 -20 -1 -23 4 -23 34 0 30 3 35 23 34 16 -1 18 -2 5 -6z m143 -18
c0 24 2 26 8 11 7 -18 8 -18 14 -3 7 18 32 23 41 8 3 -5 -2 -8 -12 -7 -11 0
-18 -7 -20 -21 -2 -16 2 -23 12 -23 19 0 21 16 4 24 -7 3 -4 5 7 3 11 -1 20
-9 20 -17 0 -22 -37 -25 -52 -4 -12 16 -13 16 -13 1 0 -25 -17 -21 -26 6 l-8
22 -7 -25 c-6 -21 -7 -19 -8 15 l-1 40 20 -30 20 -30 1 30z m169 10 c0 -8 5
-15 10 -15 6 0 10 7 10 15 0 8 4 15 9 15 15 0 10 -68 -5 -74 -25 -10 -44 5
-44 35 0 40 -20 37 -21 -3 l-2 -33 -4 30 c-3 16 -10 33 -16 37 -7 4 5 8 26 8
26 0 37 -4 37 -15z m78 8 c-10 -2 -18 -9 -18 -14 0 -5 8 -10 18 -10 16 -1 16
-2 0 -6 -10 -2 -18 -8 -18 -13 0 -5 8 -11 18 -13 13 -4 11 -5 -5 -6 -20 -1
-23 4 -23 34 0 30 3 35 23 34 16 -1 18 -2 5 -6z m67 -53 c8 0 16 12 18 28 4
25 4 25 3 -3 -1 -23 -6 -30 -21 -30 -15 0 -21 8 -22 33 -3 32 -3 32 3 2 3 -16
11 -30 19 -30z m75 50 c0 -5 -7 -7 -15 -4 -8 4 -15 2 -15 -4 0 -5 9 -12 20
-15 15 -4 20 0 20 14 0 17 6 19 48 17 46 -3 47 -4 49 -38 1 -27 -1 -31 -8 -17
-12 21 -31 23 -23 2 5 -12 -5 -14 -55 -14 -34 1 -61 5 -61 10 0 4 7 6 15 3 20
-8 19 6 -2 21 -9 7 -13 17 -9 23 9 14 36 16 36 2z m178 3 c-10 -2 -18 -9 -18
-14 0 -15 22 -10 42 8 16 14 22 15 39 4 14 -8 25 -9 32 -2 7 5 24 9 39 8 24
-2 28 -6 28 -30 0 -19 4 -27 13 -24 6 2 11 16 10 31 -1 14 2 26 8 26 5 0 9
-11 9 -25 0 -14 2 -25 4 -25 2 0 11 -3 20 -6 9 -3 16 -1 16 5 0 6 -7 11 -15
11 -8 0 -15 9 -15 20 0 21 24 28 35 10 3 -6 -1 -7 -9 -4 -9 3 -16 2 -16 -4 0
-5 7 -12 15 -16 8 -3 15 -12 15 -20 0 -10 -14 -14 -50 -14 -44 0 -51 3 -56 23
-7 27 -32 41 -47 26 -17 -17 1 -43 24 -36 15 5 19 4 15 -4 -9 -14 -43 -14 -48
0 -3 8 -10 8 -25 -2 -19 -11 -25 -11 -41 4 -24 22 -39 22 -45 0 -3 -10 -5 -1
-6 20 -1 32 2 37 22 36 16 -1 18 -2 5 -6z m290 0 c-10 -2 -18 -9 -18 -14 0 -5
8 -10 18 -10 16 -1 16 -2 0 -6 -10 -2 -18 -8 -18 -13 0 -5 8 -11 18 -13 13 -4
11 -5 -5 -6 -20 -1 -23 4 -23 34 0 30 3 35 23 34 16 -1 18 -2 5 -6z m71 -10
c12 -23 -4 -53 -29 -53 -16 0 -20 7 -20 35 0 28 4 35 20 35 10 0 23 -8 29 -17z
m56 -33 c-4 -11 -11 -20 -16 -20 -10 0 -12 53 -2 64 11 11 25 -23 18 -44z m44
13 c-1 -33 -2 -35 -8 -13 l-7 25 -7 -25 c-3 -13 -9 -22 -11 -19 -8 7 16 69 26
69 4 0 8 -17 7 -37z m39 30 c-10 -2 -18 -9 -18 -14 0 -5 8 -10 18 -10 16 -1
16 -2 0 -6 -10 -2 -18 -8 -18 -13 0 -5 8 -11 18 -13 13 -4 11 -5 -5 -6 -20 -1
-23 4 -23 34 0 30 3 35 23 34 16 -1 18 -2 5 -6z m67 -28 c0 -23 -5 -31 -22
-33 -20 -3 -23 1 -23 33 0 32 3 36 23 33 17 -2 22 -10 22 -33z m43 4 c13 36
20 34 40 -11 7 -17 8 -28 2 -28 -6 0 -10 5 -10 10 0 6 -7 10 -15 10 -8 0 -15
-4 -15 -10 0 -5 -7 -10 -15 -10 -11 0 -15 10 -14 38 l2 37 6 -35 6 -35 13 34z
m100 24 c-10 -2 -18 -9 -18 -14 0 -5 8 -10 18 -10 16 -1 16 -2 0 -6 -10 -2
-18 -8 -18 -13 0 -5 8 -11 18 -13 13 -4 11 -5 -5 -6 -20 -1 -23 4 -23 34 0 30
3 35 23 34 16 -1 18 -2 5 -6z m56 -5 c10 16 61 8 64 -10 2 -11 -3 -18 -12 -18
-9 0 -16 -7 -16 -15 0 -17 -26 -20 -35 -5 -5 8 -11 7 -21 -1 -16 -13 -19 2 -3
18 8 8 8 13 0 17 -6 4 -11 12 -11 18 0 7 5 6 14 -1 8 -7 17 -8 20 -3z m104 5
c-10 -2 -18 -9 -18 -14 0 -5 8 -10 18 -10 16 -1 16 -2 0 -6 -10 -2 -18 -8 -18
-13 0 -5 8 -11 18 -13 13 -4 11 -5 -5 -6 -20 -1 -23 4 -23 34 0 30 3 35 23 34
16 -1 18 -2 5 -6z m82 -30 c0 -36 -10 -42 -31 -17 -12 14 -14 14 -20 -3 -5
-12 -8 -7 -8 20 -1 35 0 37 29 35 27 -2 30 -6 30 -35z m80 33 c0 -2 3 -12 7
-22 4 -11 3 -15 -4 -11 -7 5 -9 0 -6 -13 5 -17 0 -20 -31 -20 -34 0 -36 1 -36
35 0 33 2 35 35 35 19 0 35 -2 35 -4z m40 -6 c0 -6 8 -5 20 2 16 10 22 10 32
-1 11 -11 9 -12 -8 -7 -14 4 -24 2 -27 -7 -8 -21 9 -41 28 -34 9 4 14 3 10 -3
-11 -18 -42 -11 -54 13 l-11 22 6 -22 c5 -23 -11 -33 -18 -11 -6 18 3 58 13
58 5 0 9 -5 9 -10z m98 3 c-10 -2 -18 -9 -18 -14 0 -5 8 -10 18 -10 16 -1 16
-2 0 -6 -10 -2 -18 -8 -18 -13 0 -5 8 -11 18 -13 13 -4 11 -5 -5 -6 -20 -1
-23 4 -23 34 0 30 3 35 23 34 16 -1 18 -2 5 -6z m62 -3 c0 -5 -7 -7 -15 -4 -8
4 -15 2 -15 -4 0 -5 9 -12 21 -15 12 -3 19 -12 17 -19 -5 -16 -48 -24 -48 -9
0 6 7 8 15 5 20 -8 19 6 -2 21 -9 7 -13 17 -9 23 9 14 36 16 36 2z"/>
<path d="M1000 915 c0 -8 5 -15 10 -15 6 0 10 7 10 15 0 8 -4 15 -10 15 -5 0
-10 -7 -10 -15z"/>
<path d="M1245 951 c-3 -5 3 -12 12 -14 17 -4 17 -5 1 -6 -25 -1 -23 -21 2
-21 15 0 20 7 20 25 0 25 -23 35 -35 16z"/>
<path d="M1295 950 c-3 -5 1 -10 9 -10 9 0 16 5 16 10 0 6 -4 10 -9 10 -6 0
-13 -4 -16 -10z"/>
<path d="M1437 953 c-13 -12 -7 -43 7 -43 16 0 25 19 18 38 -5 13 -15 16 -25
5z"/>
<path d="M1720 936 c0 -17 5 -26 16 -26 10 0 14 7 12 22 -5 32 -28 35 -28 4z"/>
<path d="M1930 936 c0 -17 5 -26 16 -26 10 0 14 7 12 22 -5 32 -28 35 -28 4z"/>
<path d="M2167 947 c-3 -8 -1 -20 4 -28 6 -10 9 -7 9 14 0 29 -5 35 -13 14z"/>
<path d="M2200 950 c0 -5 5 -10 10 -10 6 0 10 5 10 10 0 6 -4 10 -10 10 -5 0
-10 -4 -10 -10z"/>
<path d="M2300 950 c0 -5 5 -10 10 -10 6 0 10 5 10 10 0 6 -4 10 -10 10 -5 0
-10 -4 -10 -10z"/>
<path d="M2331 924 c0 -11 3 -14 6 -6 3 7 2 16 -1 19 -3 4 -6 -2 -5 -13z"/>
<path d="M2375 951 c-3 -5 3 -12 12 -14 17 -4 17 -5 1 -6 -25 -1 -23 -21 2
-21 15 0 20 7 20 25 0 25 -23 35 -35 16z"/>
<path d="M986 1051 c-4 -5 3 -7 14 -4 23 6 26 13 6 13 -8 0 -17 -4 -20 -9z"/>
<path d="M2165 1050 c3 -5 8 -10 11 -10 2 0 4 5 4 10 0 6 -5 10 -11 10 -5 0
-7 -4 -4 -10z"/>
<path d="M2300 1049 c0 -5 5 -7 10 -4 6 3 10 8 10 11 0 2 -4 4 -10 4 -5 0 -10
-5 -10 -11z"/>
<path d="M1181 1024 c0 -11 3 -14 6 -6 3 7 2 16 -1 19 -3 4 -6 -2 -5 -13z"/>
<path d="M1225 1030 c3 -5 10 -10 16 -10 5 0 9 5 9 10 0 6 -7 10 -16 10 -8 0
-12 -4 -9 -10z"/>
<path d="M65 1019 c-4 -6 -4 -13 -1 -16 3 -4 6 -1 6 5 0 6 8 13 18 15 15 4 15
5 0 6 -9 0 -20 -4 -23 -10z"/>
<path d="M830 1021 c0 -6 5 -13 10 -16 6 -3 10 1 10 9 0 9 -4 16 -10 16 -5 0
-10 -4 -10 -9z"/>
<path d="M1670 1010 c0 -5 14 -10 30 -10 17 0 30 5 30 10 0 6 -13 10 -30 10
-16 0 -30 -4 -30 -10z"/>
<path d="M543 996 c1 -6 -17 -11 -43 -12 -25 0 -55 -4 -67 -8 -12 -4 -24 -2
-28 4 -12 19 -51 10 -75 -18 -25 -28 -25 -30 -8 -58 12 -19 14 -30 7 -35 -6
-4 -7 -8 -3 -11 5 -2 19 6 31 19 21 22 21 23 3 23 -16 0 -20 7 -20 35 0 30 3
35 23 34 16 -1 18 -2 5 -6 -10 -2 -18 -8 -18 -13 0 -5 8 -11 18 -13 16 -4 16
-5 0 -6 -25 -1 -23 -21 2 -21 16 0 20 7 20 30 0 17 4 30 8 30 9 0 34 -62 27
-68 -2 -3 -8 6 -13 19 l-9 23 -5 -27 c-5 -26 -4 -27 36 -26 22 1 33 3 24 6
-21 5 -31 34 -21 59 6 15 9 12 14 -16 l6 -35 2 33 c1 25 5 32 21 32 11 0 23
-7 26 -15 6 -14 8 -13 20 2 10 15 16 16 32 6 17 -10 21 -8 30 12 10 21 8 23
-18 27 -17 3 -28 0 -27 -6z"/>
<path d="M475 950 c-3 -5 1 -10 10 -10 9 0 13 5 10 10 -3 6 -8 10 -10 10 -2 0
-7 -4 -10 -10z"/>
<path d="M537 953 c-13 -12 -7 -43 7 -43 16 0 25 19 18 38 -5 13 -15 16 -25 5z"/>
<path d="M720 950 c0 -5 6 -10 14 -10 8 0 16 -5 18 -12 3 -7 7 -5 11 6 4 9 3
15 -2 11 -5 -3 -12 -1 -16 5 -8 13 -25 13 -25 0z"/>
<path d="M2795 930 c3 -5 8 -10 11 -10 2 0 4 5 4 10 0 6 -5 10 -11 10 -5 0 -7
-4 -4 -10z"/>
<path d="M2717 906 c-5 -12 1 -16 23 -16 17 0 30 5 30 10 0 6 -4 10 -9 10 -5
0 -16 3 -24 6 -8 3 -17 -2 -20 -10z"/>
<path d="M276 893 c-6 -14 -5 -15 5 -6 7 7 10 15 7 18 -3 3 -9 -2 -12 -12z"/>
<path d="M165 890 c-3 -5 3 -10 15 -10 12 0 18 5 15 10 -3 6 -10 10 -15 10 -5
0 -12 -4 -15 -10z"/>
<path d="M100 883 c8 -3 18 -11 22 -17 5 -7 8 -4 8 7 0 11 -7 17 -22 16 -16 0
-18 -2 -8 -6z"/>
<path d="M507 874 c-3 -4 3 -24 13 -45 11 -21 20 -45 20 -52 0 -8 7 -20 15
-27 8 -7 15 -25 15 -41 0 -16 4 -29 9 -29 16 0 -2 123 -21 147 -5 7 -7 17 -4
22 4 6 -2 15 -13 20 -23 13 -26 13 -34 5z"/>
<path d="M915 870 c3 -5 11 -10 16 -10 6 0 7 5 4 10 -3 6 -11 10 -16 10 -6 0
-7 -4 -4 -10z"/>
<path d="M1740 860 c0 -5 6 -10 14 -10 8 0 18 5 21 10 3 6 -3 10 -14 10 -12 0
-21 -4 -21 -10z"/>
<path d="M1178 853 c7 -3 16 -2 19 1 4 3 -2 6 -13 5 -11 0 -14 -3 -6 -6z"/>
<path d="M1530 851 c0 -6 5 -13 10 -16 6 -3 10 1 10 9 0 9 -4 16 -10 16 -5 0
-10 -4 -10 -9z"/>
<path d="M1618 853 c7 -3 16 -2 19 1 4 3 -2 6 -13 5 -11 0 -14 -3 -6 -6z"/>
<path d="M321 823 c-11 -12 -11 -17 -2 -23 7 -4 12 -11 11 -16 -1 -5 3 -10 9
-12 12 -4 15 54 4 61 -5 3 -14 -2 -22 -10z"/>
<path d="M991 824 c0 -11 3 -14 6 -6 3 7 2 16 -1 19 -3 4 -6 -2 -5 -13z"/>
<path d="M1025 820 c-4 -6 12 -10 46 -10 29 0 49 3 46 6 -12 12 -85 15 -92 4z"/>
<path d="M1972 776 c3 -35 -6 -49 -40 -62 -1 -1 1 -11 6 -24 6 -15 18 -24 36
-26 l27 -3 -5 59 c-6 69 -28 122 -24 56z"/>
<path d="M2334 802 c-6 -4 -11 -24 -12 -44 -2 -47 23 -52 32 -7 11 57 7 69
-20 51z"/>
<path d="M1180 790 c0 -5 7 -10 15 -10 8 0 15 5 15 10 0 6 -7 10 -15 10 -8 0
-15 -4 -15 -10z"/>
<path d="M1915 790 c-7 -12 -15 -50 -11 -50 10 0 34 50 27 55 -5 3 -12 1 -16
-5z"/>
<path d="M830 779 c0 -5 5 -7 10 -4 6 3 10 8 10 11 0 2 -4 4 -10 4 -5 0 -10
-5 -10 -11z"/>
<path d="M1240 780 c0 -13 38 -32 53 -26 7 2 5 5 -5 5 -9 1 -20 6 -24 13 -5 8
0 9 14 6 12 -4 22 -2 22 3 0 5 -13 9 -30 9 -16 0 -30 -4 -30 -10z"/>
<path d="M1620 777 c0 -9 60 -5 66 4 2 4 -11 7 -31 6 -19 -1 -35 -5 -35 -10z"/>
<path d="M2538 765 c2 -14 7 -23 10 -21 3 3 10 1 17 -4 8 -7 10 -2 7 20 -3 20
-10 30 -22 30 -13 0 -16 -6 -12 -25z"/>
<path d="M1020 770 c-18 -6 -20 -8 -7 -9 10 -1 15 -6 12 -11 -3 -6 2 -13 12
-17 10 -4 21 -11 25 -17 5 -8 11 -7 20 2 6 6 20 12 29 12 10 0 19 10 21 25 4
19 2 23 -7 15 -7 -6 -20 -8 -29 -4 -12 5 -15 2 -10 -11 5 -13 2 -16 -17 -13
-16 2 -23 9 -21 21 2 9 2 17 0 16 -2 -1 -14 -5 -28 -9z"/>
<path d="M2605 770 c-4 -6 -3 -16 3 -22 6 -6 12 -6 17 2 4 6 3 16 -3 22 -6 6
-12 6 -17 -2z"/>
<path d="M2740 766 c0 -9 5 -16 10 -16 6 0 10 4 10 9 0 6 -4 13 -10 16 -5 3
-10 -1 -10 -9z"/>
<path d="M280 754 c0 -7 -6 -17 -14 -21 -16 -9 -25 -51 -12 -55 5 -2 13 10 17
26 5 17 15 34 24 38 19 11 19 25 0 25 -8 0 -15 -6 -15 -13z"/>
<path d="M1204 746 c-10 -27 2 -43 14 -19 8 14 9 24 2 28 -6 3 -13 -1 -16 -9z"/>
<path d="M1420 746 c0 -16 51 -28 65 -15 5 5 -1 9 -18 9 -15 0 -27 5 -27 10 0
6 -4 10 -10 10 -5 0 -10 -6 -10 -14z"/>
<path d="M800 701 c0 -29 5 -51 11 -51 5 0 7 5 4 10 -9 14 8 12 25 -2 8 -7 7
-4 -3 8 -9 11 -17 32 -17 47 0 14 -4 29 -10 32 -6 4 -10 -13 -10 -44z"/>
<path d="M1350 741 c0 -5 7 -11 15 -15 8 -3 15 -12 15 -21 0 -8 5 -15 11 -15
6 0 8 7 5 16 -3 9 -6 22 -6 30 0 8 -9 14 -20 14 -11 0 -20 -4 -20 -9z"/>
<path d="M2800 726 c0 -27 16 -44 23 -24 5 18 -3 48 -14 48 -5 0 -9 -11 -9
-24z"/>
<path d="M1658 733 c7 -3 16 -2 19 1 4 3 -2 6 -13 5 -11 0 -14 -3 -6 -6z"/>
<path d="M2450 713 c0 -16 -5 -34 -11 -40 -8 -8 -8 -17 1 -33 10 -18 14 -20
21 -9 12 19 11 96 -1 104 -6 4 -10 -6 -10 -22z"/>
<path d="M2693 733 c4 -3 2 -12 -5 -20 -12 -15 -5 -28 11 -18 6 3 16 15 21 26
9 16 7 19 -11 19 -12 0 -19 -3 -16 -7z"/>
<path d="M2745 730 c3 -5 10 -10 16 -10 5 0 9 5 9 10 0 6 -7 10 -16 10 -8 0
-12 -4 -9 -10z"/>
<path d="M370 714 c0 -12 7 -27 15 -34 20 -17 21 9 0 36 -14 19 -14 19 -15 -2z"/>
<path d="M989 725 c-3 -15 -5 -155 -1 -155 2 0 17 8 35 17 l32 18 -27 3 c-24
3 -26 7 -22 35 4 30 -11 105 -17 82z"/>
<path d="M1260 705 c0 -9 6 -12 15 -9 11 5 15 -1 15 -21 0 -14 4 -24 9 -21 5
3 7 16 3 29 -8 34 -42 52 -42 22z"/>
<path d="M1757 713 c-9 -14 9 -64 26 -75 23 -14 30 -8 13 11 -9 10 -21 32 -25
47 -4 17 -10 24 -14 17z"/>
<path d="M1120 703 c1 -26 80 -69 107 -58 15 6 13 9 -11 16 -17 5 -34 15 -39
24 -4 8 -12 13 -17 10 -5 -3 -11 -1 -15 5 -7 12 -25 14 -25 3z"/>
<path d="M1325 700 c-3 -5 1 -10 9 -10 9 0 16 5 16 10 0 6 -4 10 -9 10 -6 0
-13 -4 -16 -10z"/>
<path d="M1710 701 c0 -6 4 -13 10 -16 6 -3 7 1 4 9 -7 18 -14 21 -14 7z"/>
<path d="M2135 699 c-3 -3 4 -9 15 -12 12 -3 20 0 20 7 0 13 -28 18 -35 5z"/>
<path d="M2328 687 c-3 -15 -2 -27 3 -27 13 0 17 14 9 35 -6 17 -7 16 -12 -8z"/>
<path d="M2600 700 c0 -5 7 -10 16 -10 8 0 12 5 9 10 -3 6 -10 10 -16 10 -5 0
-9 -4 -9 -10z"/>
<path d="M2216 684 c-8 -21 -4 -25 14 -14 11 7 12 12 4 20 -8 8 -13 7 -18 -6z"/>
<path d="M2065 680 c-3 -5 -2 -10 4 -10 5 0 13 5 16 10 3 6 2 10 -4 10 -5 0
-13 -4 -16 -10z"/>
<path d="M2905 680 c3 -5 8 -10 11 -10 2 0 4 5 4 10 0 6 -5 10 -11 10 -5 0 -7
-4 -4 -10z"/>
<path d="M2725 670 c-4 -6 10 -10 35 -10 23 0 39 4 36 8 -7 12 -64 14 -71 2z"/>
<path d="M1375 661 c-6 -11 9 -23 19 -14 9 9 7 23 -3 23 -6 0 -12 -4 -16 -9z"/>
<path d="M1646 655 c-3 -9 -9 -14 -13 -12 -12 7 -55 -12 -50 -20 5 -7 26 -8
86 -4 10 0 22 8 25 17 4 10 2 13 -6 8 -6 -4 -17 1 -23 10 -11 15 -13 15 -19 1z"/>
<path d="M2139 665 c-1 -3 -3 -9 -4 -15 -1 -5 -3 -12 -5 -15 -2 -5 -3 -67 -1
-82 1 -4 8 2 16 14 11 16 13 28 5 48 -8 20 -7 27 5 31 19 8 19 24 0 24 -8 0
-16 -2 -16 -5z"/>
<path d="M590 641 c0 -11 6 -32 14 -48 13 -27 37 -107 37 -128 1 -23 -12 -60
-21 -63 -5 -2 -10 -12 -10 -23 0 -13 -7 -19 -21 -19 -11 0 -17 -4 -14 -10 11
-18 55 -12 55 8 0 24 24 90 38 104 9 9 8 16 -2 27 -7 9 -19 39 -26 66 -23 90
-50 137 -50 86z"/>
<path d="M1328 628 c3 -18 7 -27 9 -20 6 15 30 16 35 0 3 -8 7 -6 11 5 3 9 3
16 -1 16 -26 -4 -41 3 -36 16 4 9 0 15 -8 15 -11 0 -13 -9 -10 -32z"/>
<path d="M1056 642 c-3 -5 8 -19 25 -31 16 -12 27 -26 24 -32 -11 -16 5 -47
26 -52 20 -5 20 -5 3 14 -10 12 -17 33 -16 49 3 36 -46 77 -62 52z"/>
<path d="M1435 640 c-10 -16 17 -23 31 -8 12 12 11 14 -6 15 -11 1 -22 -2 -25
-7z"/>
<path d="M826 631 c-4 -7 -5 -15 -2 -18 9 -9 19 4 14 18 -4 11 -6 11 -12 0z"/>
<path d="M876 631 c-4 -5 -2 -12 3 -15 5 -4 12 -2 15 3 4 5 2 12 -3 15 -5 4
-12 2 -15 -3z"/>
<path d="M1546 613 c3 -17 1 -39 -4 -50 -11 -20 1 -53 14 -40 11 10 5 100 -7
112 -6 6 -7 -2 -3 -22z"/>
<path d="M1750 630 c0 -5 5 -10 11 -10 5 0 7 5 4 10 -3 6 -8 10 -11 10 -2 0
-4 -4 -4 -10z"/>
<path d="M1991 631 c-15 -10 -4 -38 24 -61 16 -13 16 -15 -2 -21 -13 -6 -10
-8 15 -8 36 -1 41 9 12 26 -11 7 -23 26 -27 43 -6 21 -12 27 -22 21z"/>
<path d="M434 602 c8 -16 13 -32 10 -35 -3 -3 -3 -11 1 -18 6 -8 10 -7 17 5
10 19 -9 67 -30 74 -11 3 -10 -2 2 -26z"/>
<path d="M495 620 c3 -5 11 -10 16 -10 6 0 7 5 4 10 -3 6 -11 10 -16 10 -6 0
-7 -4 -4 -10z"/>
<path d="M565 620 c-3 -5 -1 -10 4 -10 6 0 11 5 11 10 0 6 -2 10 -4 10 -3 0
-8 -4 -11 -10z"/>
<path d="M677 623 c-4 -3 -7 -16 -6 -27 0 -19 1 -19 10 3 10 24 8 36 -4 24z"/>
<path d="M762 621 c4 -13 18 -16 19 -4 0 4 -5 9 -11 12 -7 2 -11 -2 -8 -8z"/>
<path d="M920 615 c6 -8 9 -18 6 -24 -3 -5 0 -11 8 -14 9 -4 13 0 11 11 -2 9
-4 23 -4 30 -1 6 -8 12 -17 12 -13 0 -14 -3 -4 -15z"/>
<path d="M2300 615 c0 -8 0 -18 -1 -22 0 -4 4 -9 10 -11 6 -2 11 8 11 22 0 14
-4 26 -10 26 -5 0 -10 -7 -10 -15z"/>
<path d="M153 610 c9 -6 26 -8 37 -5 11 4 20 2 20 -3 0 -5 14 -7 30 -4 55 8
39 17 -33 20 -55 2 -68 0 -54 -8z"/>
<path d="M824 563 c4 -34 20 -33 24 2 2 17 -1 25 -12 25 -10 0 -14 -8 -12 -27z"/>
<path d="M874 575 c-9 -21 -2 -26 13 -10 8 9 9 16 3 20 -6 3 -13 -1 -16 -10z"/>
<path d="M1600 577 c0 -3 6 -17 14 -32 9 -18 16 -23 21 -15 4 7 2 16 -5 20 -6
4 -11 11 -10 16 1 5 -3 10 -9 12 -6 2 -11 2 -11 -1z"/>
<path d="M1662 567 c-7 -9 -8 -17 -1 -27 8 -11 12 -12 16 -2 2 6 13 12 24 12
10 0 19 7 19 15 0 19 -43 20 -58 2z"/>
<path d="M1766 564 c-3 -9 -6 -29 -6 -45 l0 -29 -96 0 c-56 0 -93 -4 -89 -9 3
-5 48 -8 100 -6 94 4 96 4 105 -20 5 -14 14 -25 20 -25 13 0 13 6 -4 33 -19
31 -28 75 -16 82 12 8 13 35 1 35 -5 0 -12 -7 -15 -16z"/>
<path d="M2167 545 c-4 -8 -3 -16 1 -19 9 -5 32 20 25 28 -10 10 -21 7 -26 -9z"/>
<path d="M2300 550 c-80 -7 -63 -13 33 -12 32 0 64 5 70 11 8 8 6 11 -8 9 -11
-1 -54 -4 -95 -8z"/>
<path d="M383 543 c-8 -3 -11 -14 -7 -31 11 -46 24 -48 24 -4 0 23 -1 42 -2
41 -2 0 -9 -3 -15 -6z"/>
<path d="M990 535 c0 -8 8 -23 18 -33 16 -16 22 -17 37 -6 10 8 17 15 14 17
-18 15 -55 37 -61 37 -5 0 -8 -7 -8 -15z"/>
<path d="M1371 524 c0 -11 3 -14 6 -6 3 7 2 16 -1 19 -3 4 -6 -2 -5 -13z"/>
<path d="M439 513 c-1 -10 -1 -34 0 -53 2 -24 -6 -48 -24 -74 -27 -40 -27 -58
0 -36 8 7 12 16 9 21 -3 5 1 12 10 15 21 8 43 104 23 104 -5 0 -7 7 -4 15 4 8
2 17 -3 20 -6 4 -11 -2 -11 -12z"/>
<path d="M2447 523 c-7 -15 -8 -87 -1 -80 5 4 9 15 10 24 2 9 5 27 9 40 5 21
-9 33 -18 16z"/>
<path d="M806 501 c-3 -5 -24 -12 -46 -16 -35 -6 -65 -24 -43 -26 60 -6 74 -7
69 -2 -11 11 32 33 50 26 12 -4 15 -2 12 8 -6 17 -34 24 -42 10z"/>
<path d="M928 499 c-27 -15 -22 -24 14 -27 32 -3 51 -18 42 -34 -6 -9 -95 -11
-118 -2 -25 9 -19 24 9 24 25 0 34 14 16 25 -16 9 -60 -16 -54 -31 5 -14 2
-15 -86 -18 -36 -1 -58 -23 -48 -50 5 -12 21 -16 64 -17 32 -1 69 -5 83 -9 18
-6 9 -8 -31 -5 -34 2 -62 -2 -69 -8 -10 -9 -11 -9 -5 3 7 12 6 13 -6 4 -13
-11 -29 -11 -54 -3 -6 2 -10 0 -10 -6 0 -5 9 -11 20 -12 11 0 24 -1 29 -2 14
-2 -25 -41 -41 -41 -7 0 -13 -9 -13 -21 0 -13 4 -18 12 -13 7 5 9 0 6 -14 l-6
-22 761 1 c419 1 751 4 737 8 l-25 7 23 8 c12 4 20 12 16 17 -3 5 11 26 30 47
20 20 36 39 36 43 0 9 -51 30 -60 24 -5 -3 -18 8 -29 24 -17 24 -19 34 -11 56
12 33 12 35 0 35 -5 0 -10 -8 -10 -17 0 -10 -5 -35 -11 -55 -8 -32 -14 -38
-37 -38 -42 0 -73 -26 -66 -56 7 -27 -7 -32 -27 -8 -7 9 -21 13 -33 10 -11 -3
-24 1 -30 10 -15 20 -64 24 -102 9 -19 -8 -37 -9 -47 -4 -8 5 -25 8 -38 7 -15
-2 -27 6 -39 27 -14 24 -23 29 -46 27 -16 -1 -37 -13 -46 -25 -10 -12 -22 -27
-27 -33 -5 -7 2 -15 23 -22 l31 -12 -25 -13 c-18 -9 -25 -21 -25 -40 1 -25 -2
-27 -45 -27 l-45 0 32 16 c33 16 35 37 5 49 -28 12 -226 14 -239 3 -7 -6 -19
-8 -27 -5 -16 6 -12 -16 7 -40 6 -9 6 -13 -3 -13 -6 0 -14 9 -17 20 -7 27 -37
25 -51 -2 -11 -23 -11 -23 -6 2 5 24 3 25 -34 22 -22 -2 -43 1 -46 7 -8 13
-66 15 -66 2 0 -4 12 -8 27 -7 21 1 28 -4 30 -19 2 -11 0 -14 -3 -7 -3 6 -10
10 -15 6 -19 -11 -58 -14 -64 -4 -4 6 -11 8 -16 4 -15 -9 -69 -11 -69 -3 0 9
-20 6 -38 -5 -15 -9 -40 9 -29 21 11 11 71 10 79 -2 4 -6 8 -1 8 10 1 18 2 17
16 -5 8 -14 13 -18 11 -9 -4 13 1 15 24 13 16 -2 29 0 29 5 0 12 -63 17 -120
11 -25 -3 -78 -3 -118 0 -72 5 -74 4 -98 -25 l-25 -30 15 31 c27 57 27 57 268
55 122 -1 225 -5 228 -10 3 -4 16 -14 30 -21 l25 -12 -23 21 c-21 21 -22 48
-1 35 5 -3 7 -9 5 -13 -4 -6 48 -6 132 -2 6 1 12 5 12 9 0 4 -16 7 -35 7 -20
-1 -38 2 -40 6 -7 11 61 18 145 15 82 -3 110 5 109 32 0 14 -2 14 -8 -2 -7
-19 -8 -19 -15 -1 -4 10 -2 21 5 25 10 7 -36 25 -54 22 -30 -7 -269 -7 -273 0
-3 4 -13 4 -23 -2 -17 -9 -148 -6 -158 4 -2 2 9 7 25 11 17 3 33 13 36 21 7
18 -9 18 -28 -1 -8 -8 -22 -15 -30 -15 -9 0 -16 -4 -16 -9 0 -6 -17 6 -37 24
-42 39 -41 38 -65 24z m-178 -77 c0 -5 21 -7 47 -6 27 2 53 -2 62 -9 12 -10
13 -9 7 1 -7 11 4 13 53 10 33 -2 61 0 61 4 0 4 6 5 13 2 7 -2 13 -12 13 -22
0 -15 -10 -17 -79 -17 -57 1 -81 5 -88 16 -7 11 -9 10 -9 -5 0 -16 -3 -17 -12
-8 -15 15 -32 16 -23 2 3 -5 2 -10 -4 -10 -5 0 -12 4 -16 10 -3 5 -12 7 -20 3
-10 -3 -15 1 -15 12 0 9 -5 13 -11 10 -6 -4 -8 -14 -4 -24 5 -12 3 -13 -6 -4
-15 15 -5 43 16 43 8 0 15 -4 15 -8z m306 -20 c-2 -9 -10 -18 -19 -20 -18 -4
-21 6 -11 32 7 19 33 10 30 -12z m164 17 c0 -5 5 -7 10 -4 15 9 12 -9 -5 -31
-11 -13 -13 -14 -9 -3 5 17 -4 18 -68 4 -21 -4 -28 -2 -28 11 0 14 -1 14 -16
0 -20 -21 -36 -20 -32 1 2 11 14 17 35 18 20 1 30 -2 26 -9 -5 -8 -3 -8 8 0 8
5 26 10 41 9 15 0 24 3 22 7 -3 4 0 8 5 8 6 0 11 -5 11 -11z m256 -25 c-5 -14
-9 -14 -23 -3 -10 8 -14 9 -10 2 5 -8 0 -11 -13 -10 -11 1 -20 7 -20 15 0 10
-4 10 -16 -2 -12 -12 -20 -13 -35 -6 -11 6 -19 7 -18 3 4 -22 -3 -25 -17 -7
-8 10 -13 14 -10 7 4 -6 2 -14 -4 -18 -5 -3 -10 -2 -10 4 0 5 -11 8 -24 5 -19
-3 -24 0 -21 13 2 10 4 20 4 23 1 3 6 -2 11 -10 5 -8 10 -10 10 -5 0 6 32 10
75 11 51 1 72 -3 68 -10 -4 -6 0 -6 8 1 12 10 18 10 28 0 7 -6 12 -7 11 -2 -4
18 1 30 7 17 3 -7 2 -20 -1 -28z m59 9 c3 -9 0 -21 -6 -27 -9 -8 -10 -6 -5 8
5 15 4 17 -7 8 -17 -15 -26 -6 -20 18 6 21 28 17 38 -7z m171 -48 c0 -19 -4
-35 -8 -35 -4 0 -8 9 -8 19 0 30 -17 34 -34 9 l-16 -22 0 21 c0 18 27 37 61
42 3 1 5 -15 5 -34z m-671 5 c-3 -4 -20 -8 -37 -9 -18 0 -43 -2 -55 -5 -13 -3
-23 -1 -23 4 0 5 -8 10 -17 12 -9 2 18 4 60 5 43 1 75 -2 72 -7z m170 0 c3 -5
3 -10 -2 -11 -16 -2 -58 -2 -93 0 -29 2 -32 4 -15 11 28 12 103 12 110 0z m81
-8 c-10 -2 -22 0 -28 6 -6 6 0 7 19 4 21 -5 23 -7 9 -10z m392 -17 c0 -14 -4
-25 -9 -25 -10 0 -12 34 -2 43 10 10 11 9 11 -18z m421 11 c8 -10 9 -16 1 -21
-5 -3 -10 2 -10 12 0 15 -2 16 -10 3 -5 -8 -12 -11 -15 -8 -8 8 3 28 14 28 5
0 14 -6 20 -14z m31 -6 c0 -11 -4 -20 -8 -20 -4 0 -8 9 -9 20 -1 11 2 20 8 20
5 0 9 -9 9 -20z m95 10 c7 -11 -11 -31 -26 -28 -8 2 -17 10 -21 18 -5 12 -7
10 -8 -5 -1 -20 -1 -20 -10 0 -8 19 -9 19 -9 -2 -1 -13 4 -23 9 -23 6 0 10 -9
10 -20 0 -11 -7 -20 -15 -20 -11 0 -15 12 -15 45 l0 45 40 -2 c23 -1 43 -4 45
-8z m-435 -28 c0 -14 -23 -32 -41 -32 -21 0 -33 16 -24 30 7 12 65 14 65 2z
m300 -13 c0 -5 5 -7 10 -4 6 3 10 -1 10 -9 0 -20 -20 -31 -30 -16 -6 10 -9 9
-13 -1 -3 -8 -6 -2 -6 14 -1 18 4 27 14 27 8 0 15 -5 15 -11z m-260 -13 c0 -8
5 -18 11 -22 8 -4 9 0 4 15 -4 12 -2 21 4 21 6 0 11 -13 11 -30 0 -36 -22 -40
-38 -7 l-11 22 0 -22 c-1 -35 -21 -27 -21 7 0 23 4 30 20 30 11 0 20 -6 20
-14z m85 -16 c0 -16 -6 -26 -18 -28 -19 -4 -32 20 -23 44 9 25 41 13 41 -16z
m27 8 c-3 -14 -2 -19 6 -14 7 4 12 14 12 22 0 8 5 14 10 14 13 0 13 -3 -2 -35
-16 -35 -38 -32 -38 5 0 17 4 30 9 30 5 0 7 -10 3 -22z m54 -36 c-12 -11 -17
7 -9 34 l8 29 3 -28 c2 -16 1 -31 -2 -35z m134 38 c0 -11 -4 -20 -9 -20 -5 0
-7 9 -4 20 3 11 7 20 9 20 2 0 4 -9 4 -20z m-786 -5 c-6 -16 -24 -21 -24 -7 0
11 11 22 21 22 5 0 6 -7 3 -15z m94 4 c64 8 114 2 109 -12 -2 -7 -15 -11 -28
-9 -13 1 -57 3 -96 2 -67 0 -84 6 -67 23 4 4 13 3 21 -1 8 -5 35 -6 61 -3z
m-598 -14 c6 -3 10 -2 10 3 0 15 28 9 33 -7 3 -14 -7 -17 -69 -16 -67 0 -88 8
-69 27 7 7 82 1 95 -7z m886 1 c8 -8 14 -16 14 -19 0 -2 -29 -5 -65 -6 -36 -1
-65 1 -65 4 0 29 91 46 116 21z m323 -38 c1 -5 -6 -8 -15 -8 -11 0 -14 5 -10
16 3 9 6 21 7 27 0 12 17 -20 18 -35z m-859 6 c0 -8 -10 -14 -25 -14 -29 0
-33 15 -8 29 21 11 33 6 33 -15z m589 4 c12 -16 10 -18 -25 -17 -35 0 -37 1
-16 11 12 6 22 16 22 21 0 6 1 8 3 6 1 -2 9 -12 16 -21z m-303 -3 c7 -7 -16
-10 -76 -10 -64 0 -86 3 -83 12 6 15 143 14 159 -2z m652 8 c-10 -2 -26 -2
-35 0 -10 3 -2 5 17 5 19 0 27 -2 18 -5z m49 1 c-3 -3 -12 -4 -19 -1 -8 3 -5
6 6 6 11 1 17 -2 13 -5z m-84 -21 c-7 -2 -19 -2 -25 0 -7 3 -2 5 12 5 14 0 19
-2 13 -5z"/>
<path d="M1880 280 c0 -5 7 -10 15 -10 8 0 15 5 15 10 0 6 -7 10 -15 10 -8 0
-15 -4 -15 -10z"/>
<path d="M1925 480 c-7 -11 5 -40 17 -40 6 0 7 7 4 16 -3 8 -2 12 4 9 6 -3 10
-2 10 3 0 13 -28 23 -35 12z"/>
<path d="M1989 478 c-2 -9 -9 -46 -11 -63 -2 -11 2 -22 7 -25 12 -6 25 79 13
86 -4 3 -8 4 -9 2z"/>
<path d="M2310 465 c0 -8 7 -15 15 -15 8 0 15 4 15 9 0 5 -7 11 -15 15 -9 3
-15 0 -15 -9z"/>
<path d="M224 451 c-11 -12 -1 -19 23 -17 35 4 42 24 8 22 -15 0 -29 -3 -31
-5z"/>
<path d="M2455 428 c-4 -10 -4 -26 0 -35 8 -17 8 -17 12 0 3 9 3 25 0 35 -4
16 -4 16 -12 0z"/>
<path d="M165 420 c3 -5 8 -10 11 -10 2 0 4 5 4 10 0 6 -5 10 -11 10 -5 0 -7
-4 -4 -10z"/>
<path d="M1857 396 c10 -13 21 -22 26 -19 11 7 -12 43 -29 43 -13 0 -12 -4 3
-24z"/>
<path d="M235 400 c4 -6 11 -8 16 -5 14 9 11 15 -7 15 -8 0 -12 -5 -9 -10z"/>
<path d="M165 390 c3 -5 8 -10 11 -10 2 0 4 5 4 10 0 6 -5 10 -11 10 -5 0 -7
-4 -4 -10z"/>
<path d="M496 354 c-2 -6 7 -10 22 -9 14 0 27 5 29 10 4 14 -46 12 -51 -1z"/>
<path d="M2320 359 c0 -4 9 -9 20 -12 12 -3 20 0 20 7 0 6 -9 12 -20 12 -11 0
-20 -3 -20 -7z"/>
<path d="M2447 356 c-4 -10 -1 -13 9 -9 7 3 14 9 14 14 0 14 -17 10 -23 -5z"/>
<path d="M190 356 c0 -8 71 -12 76 -4 3 4 -13 8 -35 8 -23 0 -41 -2 -41 -4z"/>
<path d="M1405 340 c3 -5 15 -10 26 -10 10 0 19 5 19 10 0 6 -12 10 -26 10
-14 0 -23 -4 -19 -10z"/>
<path d="M1520 340 c0 -5 9 -10 21 -10 11 0 17 5 14 10 -3 6 -13 10 -21 10 -8
0 -14 -4 -14 -10z"/>
<path d="M2715 309 c-12 -18 3 -22 20 -5 14 14 14 16 1 16 -8 0 -18 -5 -21
-11z"/>
<path d="M2945 310 c3 -5 13 -10 21 -10 8 0 12 5 9 10 -3 6 -13 10 -21 10 -8
0 -12 -4 -9 -10z"/>
<path d="M187 299 c7 -7 15 -10 18 -7 3 3 -2 9 -12 12 -14 6 -15 5 -6 -5z"/>
<path d="M243 303 c-21 -4 -28 -14 -24 -35 0 -5 -4 -8 -9 -8 -13 0 -13 -27 0
-35 5 -3 7 0 4 8 -3 9 8 23 32 37 33 21 38 22 48 7 11 -14 13 -14 22 0 8 13
14 13 48 -6 47 -27 67 -46 70 -68 2 -9 8 -19 14 -21 16 -5 2 39 -20 62 -10 11
-17 27 -16 35 4 22 -101 37 -169 24z m167 -17 c0 -3 -4 -8 -10 -11 -5 -3 -10
-1 -10 4 0 6 5 11 10 11 6 0 10 -2 10 -4z"/>
<path d="M2787 290 c-3 -11 -2 -22 3 -25 4 -3 10 6 12 20 6 30 -7 34 -15 5z"/>
<path d="M499 298 c-1 -5 -2 -62 0 -80 1 -17 38 -44 48 -35 2 3 -5 15 -16 26
-23 23 -26 43 -11 72 8 15 7 19 -5 19 -8 0 -15 -1 -16 -2z"/>
<path d="M603 283 c24 -28 17 -72 -14 -89 -15 -9 -18 -13 -8 -14 27 0 46 24
53 68 3 24 2 42 -3 42 -5 0 -18 3 -28 7 -17 6 -17 6 0 -14z"/>
<path d="M438 278 c9 -9 15 -9 24 0 9 9 7 12 -12 12 -19 0 -21 -3 -12 -12z"/>
<path d="M2723 267 c0 -8 6 -14 14 -14 9 0 10 4 2 14 -6 7 -12 13 -14 13 -1 0
-2 -6 -2 -13z"/>
<path d="M283 237 c-13 -6 -23 -14 -23 -19 0 -5 -4 -6 -10 -3 -5 3 -10 -3 -10
-14 0 -14 5 -19 15 -15 8 4 15 11 15 17 0 6 3 7 7 4 3 -4 15 1 26 10 18 16 20
16 14 1 -4 -11 1 -18 16 -22 12 -3 30 -18 39 -33 l17 -28 1 25 c0 54 -61 98
-107 77z"/>
<path d="M2230 230 c-24 -8 -23 -8 8 -9 17 -1 32 4 32 9 0 11 -5 11 -40 0z"/>
<path d="M723 193 c15 -2 37 -2 50 0 12 2 0 4 -28 4 -27 0 -38 -2 -22 -4z"/>
<path d="M887 193 c18 -2 50 -2 70 0 21 2 7 4 -32 4 -38 0 -55 -2 -38 -4z"/>
<path d="M1075 193 c120 -7 265 -7 265 0 0 4 -71 6 -157 5 -87 -1 -135 -3
-108 -5z"/>
<path d="M1488 193 c12 -2 32 -2 45 0 12 2 2 4 -23 4 -25 0 -35 -2 -22 -4z"/>
<path d="M1588 193 c7 -3 16 -2 19 1 4 3 -2 6 -13 5 -11 0 -14 -3 -6 -6z"/>
<path d="M1713 193 c9 -2 25 -2 35 0 9 3 1 5 -18 5 -19 0 -27 -2 -17 -5z"/>
<path d="M1873 193 c9 -2 25 -2 35 0 9 3 1 5 -18 5 -19 0 -27 -2 -17 -5z"/>
<path d="M1998 193 c7 -3 16 -2 19 1 4 3 -2 6 -13 5 -11 0 -14 -3 -6 -6z"/>
<path d="M2178 193 c7 -3 16 -2 19 1 4 3 -2 6 -13 5 -11 0 -14 -3 -6 -6z"/>
<path d="M1278 142 c-38 -3 -57 -27 -38 -46 6 -6 41 -12 78 -12 37 -1 90 -2
117 -3 200 -4 314 1 325 14 21 25 4 47 -33 44 -18 -2 -37 -1 -42 2 -6 3 -46 4
-90 2 -75 -2 -148 -2 -240 1 -22 0 -56 0 -77 -2z m72 -29 c0 -7 -19 -11 -54
-10 -34 1 -52 5 -50 12 6 15 104 13 104 -2z m128 8 c14 -1 22 -6 19 -13 -2 -7
-13 -12 -23 -11 -10 1 -40 3 -66 4 -27 2 -48 7 -48 14 0 6 19 10 48 9 26 -1
58 -3 70 -3z m72 -3 c0 -4 5 -8 11 -8 5 0 7 5 4 10 -4 6 10 10 35 10 48 0 52
-23 6 -28 -21 -3 -26 0 -20 10 6 11 5 11 -8 0 -19 -15 -68 -12 -68 5 0 6 9 11
20 10 11 -1 20 -5 20 -9z m140 -3 c0 -8 -9 -15 -20 -15 -11 0 -20 7 -20 15 0
8 9 15 20 15 11 0 20 -7 20 -15z m63 -1 c-6 -17 -44 -15 -51 4 -2 8 7 12 27
12 23 0 29 -4 24 -16z"/>
</g>
</svg>
